<?xml version="1.0" encoding="UTF-8"?>
<svg width="200px" height="160px" viewBox="0 0 200 160" version="1.1" xmlns="http://www.w3.org/2000/svg" xmlns:xlink="http://www.w3.org/1999/xlink">
    <title>frey-dates</title>
    <defs>
        <linearGradient x1="0%" y1="0%" x2="100%" y2="100%" id="linearGradient-1">
            <stop stop-color="#F39C12" stop-opacity="0.504444067" offset="0%"></stop>
            <stop stop-color="#F39912" stop-opacity="0.5" offset="24.4703039%"></stop>
            <stop stop-color="#F36E12" stop-opacity="0.75" offset="58.7007075%"></stop>
            <stop stop-color="#F39D12" offset="100%"></stop>
        </linearGradient>
    </defs>
    <g id="Page-1" stroke="none" stroke-width="1" fill="none" fill-rule="evenodd">
        <g id="frey-dates">
            <rect id="Rectangle" fill="#FFFFFF" x="0" y="0" width="200" height="160"></rect>
            <rect id="Rectangle-3" fill="#FFD693" fill-rule="nonzero" x="0" y="0" width="100" height="160"></rect>
            <path d="M36.0086715,32.1743149 C36.002919,32.2669862 36,32.360425 36,32.4545455 L36,32.4545455 L36,61.5454545 C36,64.0056321 37.9943679,66 40.4545455,66 L40.4545455,66 C42.914723,66 44.9090909,64.0056321 44.9090909,61.5454545 L44.9090909,61.5454545 L44.9090909,47 L60.0882353,47 C62.2486433,47 64,45.2486433 64,43.0882353 C64,40.9278273 62.2486433,39.1764706 60.0882353,39.1764706 L60.0882353,39.1764706 L44.9090909,39.1764706 L44.9090909,35.8235294 L60.0882353,35.8235294 C62.2486433,35.8235294 64,34.0721727 64,31.9117647 L64,31.9117647 C64,29.7513567 62.2486433,28 60.0882353,28 L60.0882353,28 L39.9117647,28 L39.9117647,28 C37.7513567,28 36,29.7513567 36,31.9117647 C36,32 36.002921,32.0875414 36.0086715,32.1743149 Z" id="Logo" fill="url(#linearGradient-1)" fill-rule="nonzero"></path>
            <text id="Simple-calendar" fill="#FEFEFE" fill-rule="nonzero" font-family="ArialMT, Arial" font-size="7" font-weight="normal">
                <tspan x="15" y="139">Simple calendar</tspan>
            </text>
            <text id="select-multiple-dates" fill="#FEFEFE" fill-rule="nonzero" font-family="ArialMT, Arial" font-size="7" font-weight="normal">
                <tspan x="15" y="146">select multiple dates</tspan>
            </text>
            <g id="Title" transform="translate(19.000000, 73.000000)" fill="#FEFEFE" fill-rule="nonzero" font-family="ArialMT, Arial" font-size="12" font-weight="normal">
                <g id="Frey">
                    <text>
                        <tspan x="0" y="11">Frey</tspan>
                    </text>
                </g>
                <g id="Dates" transform="translate(28.000000, 0.000000)">
                    <text>
                        <tspan x="0" y="11">Dates</tspan>
                    </text>
                </g>
            </g>
            <g id="calendar" transform="translate(120.000000, 57.000000)">
                <path d="M60,9.4621875 L60,50.5284375 C60,55.7540625 55.7540625,60 50.5283203,60 L9.47167969,60 C8.42460937,60 7.41597656,59.8271484 6.47460937,59.5101562 C3.65039062,58.5686719 1.42171875,56.3401172 0.480351562,53.5157812 C0.172851562,52.5744141 0,51.5755078 0,50.5284375 L0,9.4621875 C0,4.2459375 4.2459375,0 9.47167969,0 L50.5283203,0 C52.1037891,0 53.5830469,0.384257812 54.8895703,1.06640625 C56.6186719,1.96933594 58.0403906,3.39105469 58.9433203,5.12015625 C59.6157422,6.41695312 60,7.89621094 60,9.4621875 Z" id="Shape" fill="#EB9D5D" fill-rule="nonzero"></path>
                <path d="M2,50.7562496 C2,54.7403003 5.17325423,58 9.05165013,58 L49.9483499,58 C53.8267458,58 57,54.7403003 57,50.7562496 L57,31 L2,31 L2,50.7562496 Z" id="Shape" fill="#FFFFFF" fill-rule="nonzero"></path>
                <path d="M49.9483499,2 L9.05165013,2 C5.17325423,2 2,5.20463477 2,9.12138442 L2,31 L57,31 L57,9.12126656 C57,5.20451691 53.8267458,2 49.9483499,2 Z" id="Shape" fill="#F4F4F5" fill-rule="nonzero"></path>
                <g id="Group" transform="translate(6.000000, 28.000000)" fill="#FFFFFF" fill-rule="nonzero">
                    <path d="M1.90283688,7.90701449 L1.90283688,7.90701449 C0.882978723,7.90701449 0.0485815603,7.08857971 0.0485815603,6.08823188 L0.0485815603,1.90921739 C0.0485815603,0.908869565 0.882978723,0.0904347826 1.90283688,0.0904347826 L1.90283688,0.0904347826 C2.92269504,0.0904347826 3.7570922,0.908869565 3.7570922,1.90921739 L3.7570922,6.08823188 C3.7570922,7.08857971 2.92269504,7.90701449 1.90283688,7.90701449 Z" id="Shape"></path>
                    <path d="M48.1382979,7.90701449 L48.1382979,7.90701449 C47.1184397,7.90701449 46.2840426,7.08857971 46.2840426,6.08823188 L46.2840426,1.90921739 C46.2840426,0.908869565 47.1184397,0.0904347826 48.1382979,0.0904347826 L48.1382979,0.0904347826 C49.158156,0.0904347826 49.9925532,0.908869565 49.9925532,1.90921739 L49.9925532,6.08823188 C49.9925532,7.08857971 49.158156,7.90701449 48.1382979,7.90701449 Z" id="Shape"></path>
                </g>
                <path d="M30.3680314,31 C31.6625653,31 32.5988676,30.4563569 33,30 L28,30 C28.5297256,30.6289989 29.3491943,31 30.3680314,31 Z" id="Shape"></path>
                <path d="M35,28.1145954 C35,24.8726718 33.8475414,22 31.4146875,22 C29.2803953,22 28,24.4212131 28,27.4579281 C28,28.871518 28.2826179,30.0870694 28.7890928,31 L34.6934663,31 C34.6959093,30.9957969 34.6988667,30.9913466 34.7013097,30.9871436 C34.9573116,30.4126834 35,29.5508076 35,28.1145954 Z" id="Shape"></path>
                <g id="Group" transform="translate(21.000000, 18.000000)" fill-rule="nonzero">
                    <path d="M12.7581818,12.7119395 C12.3311515,13.4520242 11.3344242,14.3337177 9.95648485,14.3337177 C8.872,14.3337177 7.99975758,13.7319677 7.43575758,12.7119395 L0.358181818,12.7119395 C1.35175758,16.5071976 4.48836364,18.6765847 8.07115152,18.6765847 C10.3027879,18.6765847 11.9957576,17.8970927 13.0729697,16.8205847 L13.1884848,16.8577702 C12.0726061,21.5717903 8.87915152,23.4648589 5.33927273,23.7990605 C3.87709091,23.9474516 3.41551515,23.9846371 2.53054545,23.9102661 L2.53054545,28.9584879 C2.99224242,28.9955565 3.53090909,28.9955565 4.10812121,28.9955565 C13.7473939,28.9955565 19.6198788,22.8221815 19.909697,12.7119395 L12.7581818,12.7119395 L12.7581818,12.7119395 Z" id="Shape" fill="#666767"></path>
                    <path d="M6.72448485,9.50814113 C6.72448485,6.76132661 7.87878788,4.57135887 9.80266667,4.57135887 C11.9957576,4.57135887 13.0345455,7.16978226 13.0345455,10.1020565 C13.0345455,11.4012097 12.9961212,12.1807016 12.7653333,12.7003629 C12.7631515,12.7042218 12.7604848,12.7080806 12.7581818,12.7119395 L19.9095758,12.7119395 C19.9170909,12.4507056 19.9218182,12.1874839 19.9218182,11.9209879 C19.9218182,5.27671371 16.6512727,0.00572983871 9.99490909,0.00572983871 C3.87709091,0.00572983871 0.0294545455,4.83130645 0.0294545455,10.0649879 C0.0294545455,11.0185968 0.145939394,11.9015766 0.358181818,12.7119395 L7.43575758,12.7119395 C6.97915152,11.8862581 6.72448485,10.7868306 6.72448485,9.50814113 Z" id="Shape" fill="#5D5E5E"></path>
                </g>
                <g id="Group" transform="translate(20.000000, 5.000000)" fill-rule="nonzero">
                    <path d="M14.9639702,8.88731507 L4.03591667,8.88731507 C1.81891071,8.88731507 0.00508928571,6.9100274 0.00508928571,4.49321918 L0.00508928571,4.49321918 C0.00508928571,2.07641096 1.81891071,0.0991232877 4.03591667,0.0991232877 L14.9639702,0.0991232877 C17.1809762,0.0991232877 18.9947976,2.07641096 18.9947976,4.49321918 L18.9947976,4.49321918 C18.9947976,6.9100274 17.1809762,8.88731507 14.9639702,8.88731507 Z" id="Shape" fill="#EBB085"></path>
                    <g id="Shape" transform="translate(4.297619, 2.465753)" fill="#FFFFFF">
                        <path d="M3.97857738,0.00665753425 L3.18136905,0.00665753425 L2.56952381,1.69434247 C2.40270833,2.16936986 2.272875,2.6039589 2.16158929,3.01832877 L2.14304167,3.01832877 C2.04102976,2.5939726 1.91130952,2.16936986 1.76292857,1.69434247 L1.2158869,0.17839726 L1.16024405,0.00665753425 L0.363035714,0.00665753425 L0.270297619,1.20920548 L0.0756607143,3.85717808 L0.678232143,3.85717808 L0.770970238,2.26035616 C0.808065476,1.72467123 0.835886905,1.11834247 0.845047619,0.643438356 L0.863595238,0.643438356 C0.965607143,1.10823288 1.1232619,1.60347945 1.29007738,2.10883562 L1.87410119,3.81686301 L2.3561131,3.81686301 L2.97723214,2.07863014 C3.16259524,1.58350685 3.32025,1.09824658 3.44997024,0.643561644 L3.46851786,0.643561644 C3.45924405,1.11858904 3.49633929,1.71480822 3.52416071,2.23015068 L3.61689881,3.85742466 L4.23801786,3.85742466 L3.97857738,0.00665753425 Z" id="Path"></path>
                        <path d="M7.10283333,3.18994521 L7.10283333,2.14915068 C7.10283333,1.5630411 6.86182738,1.02735616 5.96260714,1.02735616 C5.55467262,1.02735616 5.19310714,1.12832877 4.97992262,1.24964384 L5.10975595,1.64379452 C5.30439286,1.52247945 5.58260714,1.45171233 5.85143452,1.45171233 C6.46327976,1.45171233 6.46327976,1.86608219 6.46327976,2.06827397 C5.42495238,2.06827397 4.7667381,2.41187671 4.7667381,3.09908219 C4.7667381,3.52343836 5.09120833,3.90747945 5.65668452,3.90747945 C6.03679762,3.90747945 6.34272024,3.74572603 6.50964881,3.53354795 L6.52819643,3.53354795 L6.57456548,3.85705479 L7.14931548,3.85705479 C7.11210714,3.67520548 7.10283333,3.43245205 7.10283333,3.18994521 Z M6.48171429,2.91723288 C6.48171429,3.24061644 6.19433929,3.48312329 5.84204762,3.48312329 C5.61031548,3.48312329 5.39713095,3.34171233 5.39713095,3.03854795 C5.39713095,2.54330137 5.98115476,2.46242466 6.48182738,2.46242466 L6.48182738,2.91723288 L6.48171429,2.91723288 Z"></path>
                        <path d="M9.65222619,1.08789041 L9.16094048,2.64427397 C9.10529762,2.82624658 9.04038095,3.02831507 8.994125,3.18994521 L8.98485119,3.18994521 C8.93848214,3.02831507 8.87356548,2.82624658 8.81803571,2.64427397 L8.26172024,1.08789041 L7.55725,1.08789041 L8.6047381,3.63464384 C8.63255952,3.69517808 8.64183333,3.72563014 8.64183333,3.7559589 C8.64183333,3.83683562 8.40082738,4.39261644 7.73333929,4.6150274 L7.90015476,5.10016438 C8.04842262,5.06983562 8.33579762,4.97872603 8.6140119,4.74632877 C8.97557738,4.42294521 9.23513095,3.90760274 9.58753571,3.00809589 L10.3292143,1.08789041 L9.65222619,1.08789041 L9.65222619,1.08789041 Z" id="Path"></path>
                    </g>
                </g>
                <g id="Group" transform="translate(6.000000, 28.000000)" fill="#646363" fill-rule="nonzero">
                    <path d="M1.90837264,7.94258824 L1.90837264,7.94258824 C0.890919811,7.94258824 0.058490566,7.11211765 0.058490566,6.09705882 L0.058490566,1.85658824 C0.058490566,0.841529412 0.890919811,0.0110588235 1.90837264,0.0110588235 L1.90837264,0.0110588235 C2.92582547,0.0110588235 3.75825472,0.841529412 3.75825472,1.85658824 L3.75825472,6.09705882 C3.75825472,7.11211765 2.92582547,7.94258824 1.90837264,7.94258824 Z" id="Shape"></path>
                    <path d="M48.0347877,7.94258824 L48.0347877,7.94258824 C47.0173349,7.94258824 46.1849057,7.11211765 46.1849057,6.09705882 L46.1849057,1.85658824 C46.1849057,0.841529412 47.0173349,0.0110588235 48.0347877,0.0110588235 L48.0347877,0.0110588235 C49.0522406,0.0110588235 49.8846698,0.841529412 49.8846698,1.85658824 L49.8846698,6.09705882 C49.8846698,7.11211765 49.0522406,7.94258824 48.0347877,7.94258824 Z" id="Shape"></path>
                </g>
            </g>
        </g>
    </g>
</svg>