<?xml version="1.0" encoding="UTF-8"?>
<svg width="350px" height="200px" viewBox="0 0 350 200" version="1.1" xmlns="http://www.w3.org/2000/svg" xmlns:xlink="http://www.w3.org/1999/xlink">
    <title>nino</title>
    <defs>
        <path d="M2.69950049,74.4804255 L0.00313390576,7.76310515 C-0.0859165118,5.55969379 1.73345401,3.69232833 4.10329051,3.55478654 L65.2133095,0.00805189347 C67.6255201,-0.13194922 69.7032211,1.57045076 69.8539843,3.8104687 C69.8596645,3.89486393 69.8625066,3.97940325 69.8625066,4.06396315 L69.8625066,76.7642832 C69.8625066,79.0086713 67.903208,80.8281081 65.4862904,80.8281081 C65.4208149,80.8281081 65.355348,80.8267438 65.2899384,80.8240159 L6.87628607,78.3877507 C4.60130532,78.292868 2.78490609,76.5936514 2.69950049,74.4804255 L2.69950049,74.4804255 Z" id="path-1"></path>
    </defs>
    <g id="Page-1" stroke="none" stroke-width="1" fill="none" fill-rule="evenodd">
        <g id="nino">
            <rect id="Rectangle" fill="#FFFFFF" x="0" y="0" width="350" height="200"></rect>
            <rect id="Rectangle" fill="#FF6B6B" fill-rule="nonzero" x="0" y="170" width="350" height="30"></rect>
            <rect id="Rectangle" fill="#FF6B6B" fill-rule="nonzero" x="0" y="0" width="350" height="30"></rect>
            <g id="Atom" transform="translate(193.000000, 103.000000)">
                <ellipse id="Oval" stroke="#979797" stroke-width="3" cx="18" cy="17.5" rx="18" ry="17.5"></ellipse>
                <ellipse id="Oval-2" fill="#FF6B6B" fill-rule="nonzero" cx="18" cy="17.5" rx="11" ry="10.5"></ellipse>
                <circle id="Oval-2" fill="#FF6B6B" fill-rule="nonzero" cx="28.5" cy="3.5" r="3.5"></circle>
            </g>
            <g id="Molecules" transform="translate(247.000000, 103.000000)">
                <g id="Atom1" transform="translate(12.000000, 0.000000)">
                    <ellipse id="Oval" stroke="#979797" stroke-width="3" cx="10.2484472" cy="8.79120883" rx="10.2484472" ry="8.79120883"></ellipse>
                    <ellipse id="Oval-2" fill="#FF6B6B" fill-rule="nonzero" cx="10.2484472" cy="8.79120883" rx="6.24905318" ry="5.18455903"></ellipse>
                </g>
                <g id="Atom2" transform="translate(25.000000, 17.000000)">
                    <ellipse id="Oval" stroke="#979797" stroke-width="3" cx="10.2484472" cy="8.79120883" rx="10.2484472" ry="8.79120883"></ellipse>
                    <ellipse id="Oval-2" fill="#FF6B6B" fill-rule="nonzero" cx="10.2484472" cy="8.79120883" rx="6.24905318" ry="5.18455903"></ellipse>
                </g>
                <g id="Atom3" transform="translate(0.000000, 17.000000)">
                    <ellipse id="Oval" stroke="#979797" stroke-width="3" cx="10.2484472" cy="8.79120883" rx="10.2484472" ry="8.79120883"></ellipse>
                    <ellipse id="Oval-2" fill="#FF6B6B" fill-rule="nonzero" cx="10.2484472" cy="8.34037757" rx="6.24905318" ry="5.18455903"></ellipse>
                </g>
                <circle id="Oval-2" fill="#FF6B6B" fill-rule="nonzero" cx="17.5" cy="15.5" r="2.5"></circle>
                <circle id="Oval-2" fill="#FF6B6B" fill-rule="nonzero" cx="32.5" cy="18.5" r="2.5"></circle>
                <circle id="Oval-2" fill="#FF6B6B" fill-rule="nonzero" cx="20.5" cy="25.5" r="2.5"></circle>
                <circle id="Oval-2" fill="#FF6B6B" fill-rule="nonzero" cx="24.5" cy="25.5" r="2.5"></circle>
                <circle id="Oval-2" fill="#FF6B6B" fill-rule="nonzero" cx="30.5" cy="15.5" r="2.5"></circle>
                <circle id="Oval-2" fill="#FF6B6B" fill-rule="nonzero" cx="14.5" cy="19.5" r="2.5"></circle>
            </g>
            <g id="storybook-icon" transform="translate(73.000000, 58.000000)">
                <g id="path-1-link" fill="#FF4785" fill-rule="nonzero">
                    <path d="M2.69950049,74.4804255 L0.00313390576,7.76310515 C-0.0859165118,5.55969379 1.73345401,3.69232833 4.10329051,3.55478654 L65.2133095,0.00805189347 C67.6255201,-0.13194922 69.7032211,1.57045076 69.8539843,3.8104687 C69.8596645,3.89486393 69.8625066,3.97940325 69.8625066,4.06396315 L69.8625066,76.7642832 C69.8625066,79.0086713 67.903208,80.8281081 65.4862904,80.8281081 C65.4208149,80.8281081 65.355348,80.8267438 65.2899384,80.8240159 L6.87628607,78.3877507 C4.60130532,78.292868 2.78490609,76.5936514 2.69950049,74.4804255 L2.69950049,74.4804255 Z" id="path-1"></path>
                </g>
                <g id="Shape-Clipped">
                    <mask id="mask-2" fill="white">
                        <use xlink:href="#path-1"></use>
                    </mask>
                    <g id="path-1"></g>
                    <path d="M51.5881839,9.93506211 L52.0055985,0.612320729 L60.3978416,0 L60.7593861,9.61422076 C60.7719686,9.94881782 60.4900734,10.2295343 60.1297556,10.2412187 C59.975472,10.2462219 59.8242714,10.2002893 59.7030024,10.1115772 L56.4666837,7.74411079 L52.6349616,10.443222 C52.3477164,10.645561 51.9382207,10.5933532 51.7203277,10.3266125 C51.6286053,10.2143279 51.5818789,10.075875 51.5881839,9.93506211 Z M40.8553094,30.4652196 C40.8553094,32.0462852 52.3238182,31.2885215 53.8633646,30.1779321 C53.8633646,19.411252 47.6421206,13.7535312 36.2499731,13.7535312 C24.8578253,13.7535312 18.4749907,19.4992783 18.4749907,28.1179035 C18.4749907,43.128676 40.2897417,43.4159634 40.2897417,51.6036575 C40.2897417,53.9019576 39.0778112,55.2665735 36.4115639,55.2665735 C32.9373628,55.2665735 31.5638414,53.6189312 31.7254323,48.0168249 C31.7254323,46.8015209 18.4749907,46.4226393 18.0710139,48.0168249 C17.0423243,61.5927225 26.1505513,65.5085326 36.5731546,65.5085326 C46.6725763,65.5085326 54.5905229,60.5095704 54.5905229,51.4600138 C54.5905229,35.3719134 32.4525904,35.8028445 32.4525904,27.8306163 C32.4525904,24.5986316 35.0380426,24.1677003 36.5731546,24.1677003 C38.1890619,24.1677003 41.0976954,24.4321818 40.8553094,30.4652196 Z" id="Shape" fill="#FFFFFF" fill-rule="nonzero" mask="url(#mask-2)"></path>
                </g>
            </g>
            <text id="nino-ui" fill="#353B48" fill-rule="nonzero" font-family="ArialMT, Arial" font-size="32" font-weight="normal">
                <tspan x="193" y="87">nino-ui</tspan>
            </text>
        </g>
    </g>
</svg>