<?xml version="1.0" encoding="UTF-8"?>
<svg width="300px" height="240px" viewBox="0 0 300 240" version="1.1" xmlns="http://www.w3.org/2000/svg" xmlns:xlink="http://www.w3.org/1999/xlink" style="background: #FFFFFF;">
    <!-- Generator: Sketch 47.1 (45422) - http://www.bohemiancoding.com/sketch -->
    <title>Artboard</title>
    <desc>Created with Sketch.</desc>
    <defs>
        <path d="M3.85642927,105.743814 L0.00447700823,11.0216925 C-0.122737874,7.89339242 2.47636287,5.24219454 5.86184359,5.04691916 L93.1618707,0.0114317006 C96.6078859,-0.187335312 99.5760301,2.22965231 99.7914062,5.4099247 C99.7995207,5.52974508 99.8035809,5.64977004 99.8035809,5.76982423 L99.8035809,108.986328 C99.8035809,112.172805 97.0045828,114.755956 93.5518434,114.755956 C93.458307,114.755956 93.3647828,114.754019 93.2713406,114.750146 L9.82326582,111.291251 C6.57329332,111.156541 3.97843727,108.744073 3.85642927,105.743814 L3.85642927,105.743814 Z" id="path-1"></path>
    </defs>
    <g id="Page-1" stroke="none" stroke-width="1" fill="none" fill-rule="evenodd">
        <g id="Artboard">
            <rect id="Rectangle" fill="#FF6B6B" x="0" y="210" width="300" height="30"></rect>
            <rect id="Rectangle" fill="#FF6B6B" x="0" y="0" width="300" height="30"></rect>
            <g id="Atom" transform="translate(169.000000, 138.000000)">
                <circle id="Oval" stroke="#979797" stroke-width="3" cx="20" cy="20" r="20"></circle>
                <circle id="Oval-2" fill="#FF6B6B" cx="20" cy="20" r="12"></circle>
                <circle id="Oval-2" fill="#FF6B6B" cx="32" cy="4" r="4"></circle>
            </g>
            <g id="Molecules" transform="translate(230.000000, 138.000000)">
                <g id="Atom1" transform="translate(13.265306, 0.000000)">
                    <ellipse id="Oval" stroke="#979797" stroke-width="3" cx="11.2244898" cy="10.2564103" rx="11.2244898" ry="10.2564103"></ellipse>
                    <ellipse id="Oval-2" fill="#FF6B6B" cx="11.2244898" cy="10.2564103" rx="6.8442011" ry="6.0486522"></ellipse>
                </g>
                <g id="Atom2" transform="translate(27.551020, 19.487179)">
                    <ellipse id="Oval" stroke="#979797" stroke-width="3" cx="11.2244898" cy="10.2564103" rx="11.2244898" ry="10.2564103"></ellipse>
                    <ellipse id="Oval-2" fill="#FF6B6B" cx="11.2244898" cy="10.2564103" rx="6.8442011" ry="6.0486522"></ellipse>
                </g>
                <g id="Atom3" transform="translate(0.000000, 19.487179)">
                    <ellipse id="Oval" stroke="#979797" stroke-width="3" cx="11.2244898" cy="10.2564103" rx="11.2244898" ry="10.2564103"></ellipse>
                    <ellipse id="Oval-2" fill="#FF6B6B" cx="11.2244898" cy="9.7304405" rx="6.8442011" ry="6.0486522"></ellipse>
                </g>
                <ellipse id="Oval-2" fill="#FF6B6B" cx="18.877551" cy="17.9487179" rx="2.55102041" ry="2.56410256"></ellipse>
                <ellipse id="Oval-2" fill="#FF6B6B" cx="36.2244898" cy="21.025641" rx="2.55102041" ry="2.56410256"></ellipse>
                <ellipse id="Oval-2" fill="#FF6B6B" cx="22.9591837" cy="29.2307692" rx="2.55102041" ry="2.56410256"></ellipse>
                <ellipse id="Oval-2" fill="#FF6B6B" cx="27.0408163" cy="29.2307692" rx="2.55102041" ry="2.56410256"></ellipse>
                <ellipse id="Oval-2" fill="#FF6B6B" cx="34.1836735" cy="17.9487179" rx="2.55102041" ry="2.56410256"></ellipse>
                <ellipse id="Oval-2" fill="#FF6B6B" cx="15.8163265" cy="22.0512821" rx="2.55102041" ry="2.56410256"></ellipse>
            </g>
            <g id="storybook-icon" transform="translate(28.000000, 63.000000)">
                <g id="path-1-link" fill-rule="nonzero" fill="#FF4785">
                    <path d="M3.85642927,105.743814 L0.00447700823,11.0216925 C-0.122737874,7.89339242 2.47636287,5.24219454 5.86184359,5.04691916 L93.1618707,0.0114317006 C96.6078859,-0.187335312 99.5760301,2.22965231 99.7914062,5.4099247 C99.7995207,5.52974508 99.8035809,5.64977004 99.8035809,5.76982423 L99.8035809,108.986328 C99.8035809,112.172805 97.0045828,114.755956 93.5518434,114.755956 C93.458307,114.755956 93.3647828,114.754019 93.2713406,114.750146 L9.82326582,111.291251 C6.57329332,111.156541 3.97843727,108.744073 3.85642927,105.743814 L3.85642927,105.743814 Z" id="path-1"></path>
                </g>
                <g id="Clipped">
                    <mask id="mask-2" fill="white">
                        <use xlink:href="#path-1"></use>
                    </mask>
                    <g id="path-1"></g>
                    <path d="M73.6974055,14.1053351 L74.2937121,0.869344245 L86.2826309,0 L86.799123,13.6498196 C86.817098,14.1248648 86.4143906,14.5234129 85.8996508,14.5400019 C85.6792457,14.5471051 85.4632449,14.4818922 85.2900035,14.355943 L80.666691,10.9947252 L75.1928023,14.8267966 C74.782452,15.1140681 74.1974582,15.0399459 73.8861824,14.66124 C73.7551504,14.5018236 73.6883984,14.3052547 73.6974055,14.1053351 Z M58.3647277,43.2530895 C58.3647277,45.4978123 74.7483117,44.421975 76.9476637,42.8452122 C76.9476637,27.5591849 68.0601723,19.5266183 51.7856758,19.5266183 C35.511179,19.5266183 26.3928439,27.6841606 26.3928439,39.9204803 C26.3928439,61.2320708 57.5567738,61.6399481 57.5567738,73.264452 C57.5567738,76.5274706 55.8254445,78.4648883 52.0165199,78.4648883 C47.0533754,78.4648883 45.091202,76.125643 45.3220461,68.1720353 C45.3220461,66.4466038 26.3928439,65.9086854 25.8157341,68.1720353 C24.3461776,87.4464578 37.3579304,93.0059414 52.2473637,93.0059414 C66.675109,93.0059414 77.9864613,85.9086494 77.9864613,73.0605134 C77.9864613,50.2193832 46.3608434,50.831199 46.3608434,39.5126034 C46.3608434,34.9239831 50.0543465,34.3121671 52.2473637,34.3121671 C54.5558027,34.3121671 58.7109934,34.6876655 58.3647277,43.2530895 Z" id="Shape" fill="#FFFFFF" fill-rule="nonzero" mask="url(#mask-2)"></path>
                </g>
            </g>
            <text id="nino-ui" font-family="ArialMT, Arial" font-size="36" font-weight="normal" letter-spacing="0.37028566" fill="#353B48">
                <tspan x="169" y="105">nino-ui</tspan>
            </text>
        </g>
    </g>
</svg>