<?xml version="1.0" encoding="UTF-8"?>
<svg width="80px" height="60px" viewBox="0 0 80 60" version="1.1" xmlns="http://www.w3.org/2000/svg" xmlns:xlink="http://www.w3.org/1999/xlink" style="background: #FFFFFF;">
    <!-- Generator: Sketch 47.1 (45422) - http://www.bohemiancoding.com/sketch -->
    <title>Artboard</title>
    <desc>Created with Sketch.</desc>
    <defs></defs>
    <g id="Page-1" stroke="none" stroke-width="1" fill="none" fill-rule="evenodd">
        <g id="Artboard">
            <g id="penguin" transform="translate(-1.000000, 4.000000)">
                <g id="silhouette" fill="#130F40">
                    <g id="face" transform="translate(0.000000, 7.555479)">
                        <path d="M0.354568273,48.7965324 C4.1806576,16.8796044 17.6026,0.753048074 40.6203956,0.416863446 C63.6381911,0.0806788178 77.4283638,16.2072351 81.9909138,48.7965324 L77.0646849,48.7965324 L0.354568273,48.7965324 Z M0.457522004,48.778629 L77.0924637,48.778629 L72.4093422,34.9412648 C69.5812192,28.7941272 67.5460264,24.8957252 66.3037638,23.2460587 C61.4589444,16.812366 57.3543118,15.4629253 56.3941302,15.4059274 C52.48279,15.1737442 47.3755079,16.0951172 41.0722838,18.1700462 C38.723831,16.2330576 34.309585,15.3116847 27.8295458,15.4059274 C23.5783074,15.4677555 15.8080405,21.6853407 10.5586599,33.9804123 C8.72392807,38.2777117 6.88840941,43.2104506 5.05210396,48.778629 L0.457522004,48.778629 Z" id="Combined-Shape"></path>
                    </g>
                    <path d="M42.1713949,7.979595 C43.2770851,6.22892699 44.0311531,4.89899449 44.4335987,3.9897975 C44.8360444,3.08060051 45.2593354,1.75066801 45.7034716,0 L46.0338903,4.86145434 L47.5764221,2.6593626 C47.709837,5.45675761 47.3068811,7.31775034 46.3675543,8.24234079" id="curly-hair"></path>
                    <path d="M57.8823529,13.4744889 C58.9880432,11.7238209 59.7421111,10.3938884 60.1445568,9.48469136 C60.5470024,8.57549437 60.9702934,7.24556187 61.4144296,5.49489386 L61.7448483,10.3563482 L63.2873801,8.15425646 C63.420795,10.9516515 63.0178391,12.8126442 62.0785124,13.7372347" id="curly-hair" transform="translate(60.597311, 9.616064) rotate(20.000000) translate(-60.597311, -9.616064) "></path>
                    <path d="M72.9142,30.6362204 C74.0198902,28.8855524 74.7739582,27.5556199 75.1764038,26.6464229 C75.5788495,25.7372259 76.0021405,24.4072934 76.4462767,22.6566254 L76.7766954,27.5180798 L78.3192272,25.315988 C78.4526421,28.113383 78.0496862,29.9743758 77.1103594,30.8989662" id="curly-hair" transform="translate(75.629158, 26.777796) rotate(50.000000) translate(-75.629158, -26.777796) "></path>
                </g>
                <g id="form" transform="translate(24.990476, 32.800000)">
                    <g id="beak" transform="translate(2.733333, 5.622857)">
                        <polygon id="Path-2" fill="#F39C12" points="0 4.03886649 13.5817341 0 26.6883038 4.03886649 13.5817341 8.09691419"></polygon>
                        <path d="M5.46666667,4.04845704 L21.8666667,4.04845704" id="Line" stroke="#192A56" stroke-width="0.1" stroke-linecap="square"></path>
                    </g>
                    <g id="left-eyes">
                        <ellipse id="Oval" fill="#192A56" cx="4.1" cy="2.81142857" rx="4.1" ry="2.81142857"></ellipse>
                        <ellipse id="Oval-2" fill="#F5F6FA" cx="4.1" cy="2.81142857" rx="1.36666667" ry="1.40571429"></ellipse>
                    </g>
                    <g id="right-eyes" transform="translate(24.600000, 0.000000)">
                        <ellipse id="Oval" fill="#192A56" cx="4.1" cy="2.81142857" rx="4.1" ry="2.81142857"></ellipse>
                        <path d="M4.1,4.21714286 C4.85478916,4.21714286 5.46666667,3.58778313 5.46666667,2.81142857 C5.46666667,2.03507401 4.85478916,1.40571429 4.1,1.40571429 C3.34521084,1.40571429 2.73333333,2.03507401 2.73333333,2.81142857 C2.73333333,2.93345906 2.74845087,3.05185777 2.7768647,3.16475144 C2.92921888,3.77008418 3.46385159,4.21714286 4.1,4.21714286 Z" id="Oval-2" fill="#F5F6FA"></path>
                    </g>
                </g>
                <g id="tie" transform="translate(41.357143, 56.885714) rotate(90.000000) translate(-41.357143, -56.885714) translate(38.357143, 51.385714)">
                    <g id="left-tie" transform="translate(0.000000, 4.737778)">
                        <polygon id="Triangle" fill="#F39C12" points="2.73333333 0 5.46666667 5.41460317 0 5.41460317"></polygon>
                        <path d="M2.73333333,1.35365079 L2.73333333,4.72387987" id="Line-2" stroke="#192A56" stroke-width="0.1" stroke-linecap="square"></path>
                    </g>
                    <g id="right-tie">
                        <polygon id="Triangle" fill="#F39C12" transform="translate(2.733333, 2.707302) rotate(180.000000) translate(-2.733333, -2.707302) " points="2.73333333 0 5.46666667 5.41460317 0 5.41460317"></polygon>
                        <path d="M2.73333333,0.676825397 L2.73333333,4.04705447" id="Line-2" stroke="#192A56" stroke-width="0.1" stroke-linecap="square"></path>
                    </g>
                </g>
            </g>
        </g>
    </g>
</svg>