<svg width="520" height="520" viewBox="0 0 520 520" fill="none" xmlns="http://www.w3.org/2000/svg">
<circle cx="260" cy="260" r="260" fill="#F7EEEE"/>
<path d="M427.588 96.9692C391.553 75.3938 350.181 124.052 334 151.078L424.516 205.273C440.554 178.162 463.623 118.545 427.588 96.9692Z" fill="#F59F9F"/>
<path d="M416.229 112.361C397.148 101.403 373.027 129.036 363.351 144.223L414.401 174.788C422.96 158.545 435.31 123.319 416.229 112.361Z" fill="white"/>
<path d="M91.4724 96.9692C127.507 75.3938 168.879 124.052 185.06 151.078L94.5445 205.273C78.506 178.162 55.4376 118.545 91.4724 96.9692Z" fill="#F59F9F"/>
<path d="M102.831 113.361C121.912 102.403 146.033 130.036 155.709 145.223L104.66 175.788C96.0999 159.545 83.7504 124.319 102.831 113.361Z" fill="white"/>
<ellipse cx="259" cy="290" rx="200" ry="160" fill="#F59F9F"/>
<circle cx="259" cy="336" r="40" fill="white"/>
<circle cx="259" cy="336" r="28" fill="#323030"/>
<circle cx="259" cy="336" r="28" fill="#323030"/>
<path d="M191.214 360C229.025 360 252.159 345.166 259 331.5V281.107C259 281.107 242.209 272.411 191.214 273.032C150.418 273.529 136.073 303.885 134 319.001C137.317 332.667 153.403 360 191.214 360Z" fill="white"/>
<path d="M326.786 360C288.975 360 265.841 345.166 259 331.5V281.107C259 281.107 275.791 272.411 326.786 273.032C367.582 273.529 381.927 303.885 384 319.001C380.683 332.667 364.597 360 326.786 360Z" fill="white"/>
<path d="M239.805 281.503C249.552 277 262.379 262.144 264.324 255.605C266.431 248.521 263.499 239.535 260.243 231.639C256.987 223.743 250.207 211.991 179.885 197.163C123.627 185.3 98.7475 206.132 93.3397 218.031C86.5647 236.619 82.68 275.848 121.341 284.058C169.667 294.321 229.908 286.075 239.805 281.503Z" fill="#489FB5"/>
<path d="M231.108 277.59C239.464 273.859 250.403 261.443 252.035 255.957C253.803 250.014 251.224 242.445 248.373 235.789C245.521 229.134 239.615 219.218 179.027 206.363C130.557 196.078 109.287 213.45 104.71 223.422C99 239.009 95.907 271.962 129.216 279.078C170.853 287.974 222.622 281.378 231.108 277.59Z" fill="#6F7A83"/>
<path d="M286.77 281.503C277.023 277 264.197 262.144 262.251 255.605C260.144 248.521 263.076 239.535 266.332 231.639C269.588 223.743 276.368 211.991 346.69 197.163C402.948 185.3 427.828 206.132 433.236 218.031C440.011 236.619 443.895 275.848 405.235 284.058C356.908 294.321 296.667 286.075 286.77 281.503Z" fill="#489FB5"/>
<path d="M295.528 277.59C287.172 273.859 276.232 261.443 274.6 255.957C272.832 250.014 275.411 242.445 278.262 235.789C281.113 229.134 287.02 219.217 347.606 206.362C396.075 196.078 417.345 213.451 421.922 223.423C427.632 239.01 430.726 271.964 397.417 279.08C355.781 287.975 304.013 281.379 295.528 277.59Z" fill="#6F7A83"/>
</svg>
