<?xml version="1.0" encoding="UTF-8"?>
<svg width="35px" height="43px" viewBox="0 0 35 43" version="1.1" xmlns="http://www.w3.org/2000/svg" xmlns:xlink="http://www.w3.org/1999/xlink">
    <!-- Generator: Sketch 47.1 (45422) - http://www.bohemiancoding.com/sketch -->
    <title>logo</title>
    <desc>Created with Sketch.</desc>
    <defs>
        <linearGradient x1="14.6446609%" y1="14.6446609%" x2="95.309457%" y2="82.5358662%" id="linearGradient-1">
            <stop stop-color="#FF9F43" stop-opacity="0.698992301" offset="0%"></stop>
            <stop stop-color="#FF6B6B" stop-opacity="0.74181952" offset="43.8295116%"></stop>
            <stop stop-color="#EE5253" offset="100%"></stop>
        </linearGradient>
        <linearGradient x1="50%" y1="0%" x2="50%" y2="100%" id="linearGradient-2">
            <stop stop-color="#FECA57" offset="0%"></stop>
            <stop stop-color="#10AC84" offset="100%"></stop>
        </linearGradient>
        <linearGradient x1="3.11378753%" y1="0%" x2="94.6310513%" y2="100%" id="linearGradient-3">
            <stop stop-color="#01A3A4" offset="0%"></stop>
            <stop stop-color="#3498DB" offset="51.404512%"></stop>
            <stop stop-color="#341F97" offset="100%"></stop>
        </linearGradient>
    </defs>
    <g id="Page-1" stroke="none" stroke-width="1" fill="none" fill-rule="evenodd">
        <g id="yutazon.me" transform="translate(-79.000000, -42.000000)">
            <g id="favicon" transform="translate(67.000000, 38.000000)">
                <g id="logo" transform="translate(12.000000, 4.000000)">
                    <path d="M26.0797368,4.07996634 L22.7763812,0.776610807 C21.7409002,-0.258870269 20.0620536,-0.258870269 19.0265725,0.776610807 L18.2766108,1.52657255 C17.2411297,2.56205362 17.2411297,4.24090016 18.2766108,5.27638123 L23.9013238,10.9010943 C24.1252721,11.1250425 24.3793135,11.3005564 24.6504313,11.427636 C25.6840708,12.145946 27.1148302,12.0444137 28.0362049,11.1230391 L33.6609179,5.49832607 C34.696399,4.46284499 34.696399,2.78399846 33.6609179,1.74851738 L32.9109562,0.998555644 C31.8754751,-0.0369254331 30.1966285,-0.0369254331 29.1611475,0.998555644 L26.0797368,4.07996634 L26.0797368,4.07996634 Z" id="Combined-Shape" fill="url(#linearGradient-1)"></path>
                    <path d="M30.9837006,39.4685491 C35.1256249,35.3266248 35.1256249,28.6112387 30.9837006,24.4693143 C26.8417763,20.32739 20.1263902,20.32739 15.9844659,24.4693143 C11.8425416,28.6112387 11.8425416,35.3266248 15.9844659,39.4685491 C16.0569827,39.5410659 16.1302883,39.6123131 16.2043552,39.6822907 C16.4110797,39.1958957 16.7127641,38.7402508 17.1094085,38.3436065 L19.3778085,36.0752065 C19.2422296,35.9641183 19.1108686,35.8452962 18.9843128,35.7187404 C16.9133507,33.6477783 16.9133507,30.2900852 18.9843128,28.219123 C21.055275,26.1481609 24.412968,26.1481609 26.4839302,28.219123 C28.4283365,30.1635294 28.5471586,33.2422084 26.8403963,35.3252448 L29.858758,38.3436065 C30.2554023,38.7402508 30.5570868,39.1958957 30.7638112,39.6822907 C30.8378781,39.6123131 30.9111838,39.5410659 30.9837006,39.4685491 Z" id="Combined-Shape" fill="url(#linearGradient-2)"></path>
                    <path d="M3.42845836,42.8053279 C2.61714084,42.6831205 1.83636114,42.3096762 1.21168001,41.684995 C-0.341541605,40.1317734 -0.341541605,37.6135036 1.21168001,36.060282 L20.8325681,16.4393939 L5.04584875,16.4393939 C2.84926168,16.4393939 1.06857602,14.6587083 1.06857602,12.4621212 C1.06857602,10.2655341 2.84926168,8.48484848 5.04584875,8.48484848 L29.1573931,8.48484848 C29.3037567,8.48484848 29.4482737,8.49275447 29.5905404,8.5081627 C30.8911847,8.19654212 32.3183577,8.54824894 33.3333919,9.56328315 C34.8866135,11.1165048 34.8866135,13.6347746 33.3333919,15.1879962 L13.5213881,35 L28.6229583,35 C30.8195454,35 32.600231,36.7806857 32.600231,38.9772727 C32.600231,41.1738598 30.8195454,42.9545455 28.6229583,42.9545455 L4.51141392,42.9545455 C4.13601026,42.9545455 3.7727542,42.9025354 3.42845836,42.8053279 L3.42845836,42.8053279 Z" id="Combined-Shape" fill="url(#linearGradient-3)"></path>
                </g>
            </g>
        </g>
    </g>
</svg>