<svg width="87" height="24" viewBox="0 0 87 24" fill="none" xmlns="http://www.w3.org/2000/svg">
<path d="M8.71235 16.1684C6.08789 16.1684 4.77566 16.9579 4.77566 18.5368C4.77566 19.1053 4.94776 19.5579 5.29195 19.8947C5.63614 20.2105 6.09865 20.3684 6.67947 20.3684C7.71205 20.3684 8.55101 20.0526 9.19637 19.4211C9.84173 18.7684 10.1644 17.9053 10.1644 16.8316V16.4526C10.1644 16.2632 10.0676 16.1684 9.874 16.1684H8.71235ZM5.09834 24C3.61401 24 2.38783 23.5368 1.41979 22.6105C0.473264 21.6632 0 20.4421 0 18.9474C0 15.1158 2.90412 13.2 8.71235 13.2H9.874C10.0676 13.2 10.1644 13.1158 10.1644 12.9474V12.7895C10.1644 11.9895 9.94929 11.4105 9.51905 11.0526C9.11032 10.6947 8.41118 10.5158 7.42163 10.5158C6.1094 10.5158 4.53903 10.7158 2.71051 11.1158C2.25876 11.2 1.85003 11.1053 1.48433 10.8316C1.14013 10.5579 0.968039 10.2 0.968039 9.7579V9.69474C0.968039 9.16842 1.12938 8.69474 1.45206 8.27369C1.79625 7.83158 2.22649 7.56842 2.74278 7.48421C4.63583 7.12632 6.27074 6.94737 7.64751 6.94737C10.4656 6.94737 12.4554 7.44211 13.6171 8.43158C14.8002 9.42105 15.3918 11.0632 15.3918 13.3579V21.8842C15.3918 22.3684 15.209 22.7895 14.8433 23.1474C14.4776 23.5053 14.0473 23.6842 13.5525 23.6842H12.3586C11.8423 23.6842 11.4013 23.5158 11.0356 23.1789C10.6699 22.8211 10.4763 22.3895 10.4548 21.8842V21.5368C10.4548 21.5158 10.4441 21.5053 10.4226 21.5053C10.3795 21.5053 10.358 21.5158 10.358 21.5368C9.00276 23.179 7.24954 24 5.09834 24Z" fill="#FDFCFC"/>
<path d="M28.4067 17.3684C26.0834 16.9474 24.4162 16.2947 23.4051 15.4105C22.4156 14.5263 21.9208 13.3579 21.9208 11.9053C21.9208 10.3474 22.5124 9.13684 23.6955 8.27369C24.9002 7.38947 26.7072 6.94737 29.1165 6.94737C30.5363 6.94737 31.9884 7.06316 33.4727 7.29474C33.989 7.37895 34.4085 7.62105 34.7312 8.02105C35.0754 8.42105 35.2475 8.88421 35.2475 9.41053V9.56842C35.2475 10.0105 35.0646 10.3684 34.6989 10.6421C34.3547 10.9158 33.9567 11.0105 33.505 10.9263C32.1067 10.6526 30.816 10.5158 29.6328 10.5158C28.7508 10.5158 28.127 10.6211 27.7613 10.8316C27.4171 11.0421 27.245 11.3579 27.245 11.779C27.245 12.5789 27.8904 13.1053 29.1811 13.3579C31.6335 13.7579 33.3437 14.3895 34.3117 15.2526C35.3012 16.1158 35.796 17.3684 35.796 19.0105C35.796 20.5895 35.1937 21.8211 33.989 22.7053C32.7843 23.5684 31.0311 24 28.7293 24C27.0514 24 25.4595 23.8421 23.9537 23.5263C23.4374 23.4211 23.0071 23.1579 22.663 22.7368C22.3403 22.2947 22.1789 21.8 22.1789 21.2526V21C22.1789 20.5579 22.3618 20.2211 22.7275 19.9895C23.0932 19.7368 23.5019 19.6632 23.9537 19.7684C25.352 20.1263 26.7287 20.3053 28.084 20.3053C29.6759 20.3053 30.4718 19.8526 30.4718 18.9474C30.4718 18.5263 30.3212 18.2 30.0201 17.9684C29.7404 17.7368 29.2026 17.5368 28.4067 17.3684Z" fill="#FDFCFC"/>
<path d="M45.4515 23.6842C44.9567 23.6842 44.5264 23.5053 44.1607 23.1474C43.795 22.7895 43.6122 22.3684 43.6122 21.8842V9.06316C43.6122 8.57895 43.795 8.1579 44.1607 7.8C44.5264 7.44211 44.9567 7.26316 45.4515 7.26316H47.2585C47.7532 7.26316 48.1835 7.44211 48.5492 7.8C48.9149 8.1579 49.0977 8.57895 49.0977 9.06316V21.8842C49.0977 22.3684 48.9149 22.7895 48.5492 23.1474C48.1835 23.5053 47.7532 23.6842 47.2585 23.6842H45.4515ZM45.4515 4.10526C44.9567 4.10526 44.5264 3.92632 44.1607 3.56842C43.795 3.21053 43.6122 2.78947 43.6122 2.30526V1.8C43.6122 1.31579 43.795 0.894738 44.1607 0.536843C44.5264 0.178948 44.9567 0 45.4515 0H47.2585C47.7532 0 48.1835 0.178948 48.5492 0.536843C48.9149 0.894738 49.0977 1.31579 49.0977 1.8V2.30526C49.0977 2.78947 48.9149 3.21053 48.5492 3.56842C48.1835 3.92632 47.7532 4.10526 47.2585 4.10526H45.4515Z" fill="#FDFCFC"/>
<path d="M62.6362 13.5158V17.4316C62.6362 18.1474 62.9588 18.7895 63.6042 19.3579C64.2496 19.9263 65.0025 20.2105 65.863 20.2105C66.8525 20.2105 67.6377 19.8211 68.2185 19.0421C68.7993 18.2632 69.0898 17.0737 69.0898 15.4737C69.0898 12.3158 68.0142 10.7368 65.863 10.7368C65.0025 10.7368 64.2496 11.0211 63.6042 11.5895C62.9588 12.1579 62.6362 12.8 62.6362 13.5158ZM59.3448 23.6842C58.8501 23.6842 58.4198 23.5053 58.0541 23.1474C57.7099 22.7895 57.5378 22.3684 57.5378 21.8842V1.8C57.5378 1.31579 57.7099 0.894738 58.0541 0.536843C58.4198 0.178948 58.8501 0 59.3448 0H60.926C61.4207 0 61.8402 0.178948 62.1844 0.536843C62.5501 0.894738 62.733 1.31579 62.733 1.8V8.87369C62.733 8.89474 62.7437 8.90526 62.7652 8.90526C62.7867 8.90526 62.8083 8.89474 62.8298 8.87369C64.2711 7.58948 65.8737 6.94737 67.6377 6.94737C69.6383 6.94737 71.2302 7.68421 72.4134 9.1579C73.5965 10.6316 74.1881 12.7368 74.1881 15.4737C74.1881 18.1474 73.575 20.2421 72.3488 21.7579C71.1226 23.2526 69.5523 24 67.6377 24C65.5941 24 63.8946 23.2211 62.5394 21.6632L62.4748 21.6C62.4533 21.6 62.4426 21.6105 62.4426 21.6316V21.8842C62.421 22.3895 62.2274 22.8211 61.8617 23.1789C61.5175 23.5158 61.0873 23.6842 60.571 23.6842H59.3448Z" fill="#FDFCFC"/>
<path d="M83.3537 23.6842C82.8589 23.6842 82.4287 23.5053 82.063 23.1474C81.6973 22.7895 81.5144 22.3684 81.5144 21.8842V9.06316C81.5144 8.57895 81.6973 8.1579 82.063 7.8C82.4287 7.44211 82.8589 7.26316 83.3537 7.26316H85.1607C85.6555 7.26316 86.0857 7.44211 86.4514 7.8C86.8171 8.1579 87 8.57895 87 9.06316V21.8842C87 22.3684 86.8171 22.7895 86.4514 23.1474C86.0857 23.5053 85.6555 23.6842 85.1607 23.6842H83.3537ZM83.3537 4.10526C82.8589 4.10526 82.4287 3.92632 82.063 3.56842C81.6973 3.21053 81.5144 2.78947 81.5144 2.30526V1.8C81.5144 1.31579 81.6973 0.894738 82.063 0.536843C82.4287 0.178948 82.8589 0 83.3537 0H85.1607C85.6555 0 86.0857 0.178948 86.4514 0.536843C86.8171 0.894738 87 1.31579 87 1.8V2.30526C87 2.78947 86.8171 3.21053 86.4514 3.56842C86.0857 3.92632 85.6555 4.10526 85.1607 4.10526H83.3537Z" fill="#FDFCFC"/>
</svg>
