<svg width="180" height="180" viewBox="0 0 180 180" fill="none" xmlns="http://www.w3.org/2000/svg">
<circle cx="90" cy="90" r="90" fill="#787E80"/>
<path d="M46 110.857C46 86.9714 75.3333 81 90 81C104.667 81 134 86.9714 134 110.857C134 134.743 104.667 125 90 125C75.3333 125 46 134.743 46 110.857Z" fill="#F8F1DB"/>
<path d="M71.1429 104.571C71.1429 94.5143 83.7143 92 90 92C96.2857 92 108.857 94.5143 108.857 104.571C108.857 114.629 96.2857 117.143 90 117.143C83.7143 117.143 71.1429 114.629 71.1429 104.571Z" fill="url(#paint0_radial_732_62)"/>
<defs>
<radialGradient id="paint0_radial_732_62" cx="0" cy="0" r="1" gradientUnits="userSpaceOnUse" gradientTransform="translate(93.5357 103.393) rotate(123.69) scale(15.5811 23.3717)">
<stop stop-color="#373A40"/>
<stop offset="0.489583" stop-color="#222429"/>
<stop offset="1" stop-color="#191B1F"/>
</radialGradient>
</defs>
</svg>
