<svg width="77" height="72" viewBox="0 0 77 72" fill="none" xmlns="http://www.w3.org/2000/svg">
<path d="M28.5 24V4L38.5 22.3333L48.5 4V24L38.5 34V44" stroke="white" stroke-width="4" stroke-linecap="round" stroke-linejoin="round"/>
<path d="M13.872 54.32C14.0747 54.32 14.2293 54.4107 14.336 54.592C14.4533 54.7733 14.464 54.9547 14.368 55.136L11.12 61.552C11.088 61.6053 11.072 61.696 11.072 61.824V65.088C11.072 65.3333 10.9813 65.5467 10.8 65.728C10.6187 65.9093 10.4053 66 10.16 66H8.688C8.44267 66 8.22933 65.9093 8.048 65.728C7.87733 65.5467 7.792 65.3333 7.792 65.088V61.824C7.792 61.7173 7.77067 61.6267 7.728 61.552L4.48 55.136C4.384 54.9547 4.38933 54.7733 4.496 54.592C4.60267 54.4107 4.76267 54.32 4.976 54.32H6.784C7.05067 54.32 7.296 54.4 7.52 54.56C7.744 54.7093 7.904 54.912 8 55.168L9.44 59.104C9.44 59.1147 9.44533 59.12 9.456 59.12C9.46667 59.12 9.472 59.1147 9.472 59.104L10.912 55.168C11.008 54.912 11.1627 54.7093 11.376 54.56C11.6 54.4 11.8507 54.32 12.128 54.32H13.872ZM24.2898 54.32C24.5351 54.32 24.7484 54.4107 24.9298 54.592C25.1111 54.7733 25.2017 54.9867 25.2017 55.232V61.68C25.2017 63.1733 24.8071 64.2933 24.0177 65.04C23.2284 65.7867 22.0764 66.16 20.5617 66.16C19.0471 66.16 17.8951 65.7867 17.1057 65.04C16.3164 64.2933 15.9217 63.1733 15.9217 61.68V55.232C15.9217 54.9867 16.0124 54.7733 16.1937 54.592C16.3751 54.4107 16.5884 54.32 16.8337 54.32H18.2417C18.4871 54.32 18.7004 54.4107 18.8817 54.592C19.0631 54.7733 19.1537 54.9867 19.1537 55.232V61.92C19.1537 62.5387 19.2657 62.976 19.4897 63.232C19.7137 63.4773 20.0817 63.6 20.5938 63.6C21.1058 63.6 21.4738 63.4773 21.6978 63.232C21.9218 62.976 22.0338 62.5387 22.0338 61.92V55.232C22.0338 54.9867 22.1244 54.7733 22.3057 54.592C22.4871 54.4107 22.7004 54.32 22.9458 54.32H24.2898ZM35.6666 54.32C35.912 54.32 36.1253 54.4107 36.3066 54.592C36.488 54.7733 36.5786 54.9867 36.5786 55.232V56.048C36.5786 56.2933 36.488 56.5067 36.3066 56.688C36.1253 56.8693 35.912 56.96 35.6666 56.96H33.7146C33.6186 56.96 33.5706 57.008 33.5706 57.104V65.088C33.5706 65.3333 33.48 65.5467 33.2986 65.728C33.128 65.9093 32.92 66 32.6746 66H31.2026C30.9573 66 30.744 65.9093 30.5626 65.728C30.392 65.5467 30.3066 65.3333 30.3066 65.088V57.104C30.3066 57.008 30.2586 56.96 30.1626 56.96H28.2106C27.9653 56.96 27.752 56.8693 27.5706 56.688C27.3893 56.5067 27.2986 56.2933 27.2986 56.048V55.232C27.2986 54.9867 27.3893 54.7733 27.5706 54.592C27.752 54.4107 27.9653 54.32 28.2106 54.32H35.6666ZM40.5215 61.36H42.1855C42.2175 61.36 42.2442 61.3493 42.2655 61.328C42.2975 61.296 42.3082 61.264 42.2975 61.232L41.3695 57.056C41.3695 57.0453 41.3642 57.04 41.3535 57.04C41.3428 57.04 41.3375 57.0453 41.3375 57.056L40.4095 61.232C40.3988 61.264 40.4042 61.296 40.4255 61.328C40.4575 61.3493 40.4895 61.36 40.5215 61.36ZM43.3375 55.184L46.4735 65.136C46.5375 65.3493 46.5002 65.5467 46.3615 65.728C46.2335 65.9093 46.0575 66 45.8335 66H44.2655C43.9988 66 43.7588 65.92 43.5455 65.76C43.3428 65.5893 43.2148 65.376 43.1615 65.12L42.8895 63.888C42.8682 63.8027 42.8148 63.76 42.7295 63.76H39.9935C39.8868 63.76 39.8282 63.8027 39.8175 63.888L39.5455 65.12C39.4922 65.376 39.3588 65.5893 39.1455 65.76C38.9428 65.92 38.7082 66 38.4415 66H36.9375C36.7135 66 36.5322 65.9093 36.3935 65.728C36.2655 65.5467 36.2335 65.3493 36.2975 65.136L39.4335 55.184C39.5082 54.928 39.6522 54.72 39.8655 54.56C40.0895 54.4 40.3402 54.32 40.6175 54.32H42.1535C42.4202 54.32 42.6602 54.4 42.8735 54.56C43.0975 54.72 43.2522 54.928 43.3375 55.184ZM59.0287 54.32C59.2634 54.32 59.4554 54.4107 59.6047 54.592C59.7541 54.7733 59.8074 54.9813 59.7647 55.216L57.8767 65.104C57.8234 65.36 57.6954 65.5733 57.4927 65.744C57.2901 65.9147 57.0554 66 56.7887 66H54.9327C54.6767 66 54.4527 65.9147 54.2607 65.744C54.0687 65.5733 53.9567 65.36 53.9247 65.104L53.0767 57.536C53.0767 57.5253 53.0714 57.52 53.0607 57.52C53.0501 57.52 53.0447 57.5253 53.0447 57.536L52.1967 65.104C52.1647 65.36 52.0527 65.5733 51.8607 65.744C51.6687 65.9147 51.4447 66 51.1887 66H49.3327C49.0661 66 48.8261 65.9147 48.6127 65.744C48.4101 65.5733 48.2874 65.36 48.2447 65.104L46.3567 55.216C46.3034 54.9813 46.3514 54.7733 46.5007 54.592C46.6607 54.4107 46.8581 54.32 47.0927 54.32H48.5007C48.7567 54.32 48.9807 54.4053 49.1727 54.576C49.3647 54.7467 49.4767 54.96 49.5087 55.216L50.3567 62.784C50.3567 62.7947 50.3621 62.8 50.3727 62.8C50.3834 62.8 50.3887 62.7947 50.3887 62.784L51.0927 55.216C51.1141 54.96 51.2207 54.7467 51.4127 54.576C51.6047 54.4053 51.8287 54.32 52.0847 54.32H54.1007C54.3567 54.32 54.5807 54.4053 54.7727 54.576C54.9647 54.7467 55.0714 54.96 55.0927 55.216L55.7967 62.784C55.7967 62.7947 55.8021 62.8 55.8127 62.8C55.8234 62.8 55.8287 62.7947 55.8287 62.784L56.6767 55.216C56.7087 54.96 56.8207 54.7467 57.0127 54.576C57.2047 54.4053 57.4287 54.32 57.6847 54.32H59.0287ZM63.9842 60.16C63.9842 62.4 64.7576 63.52 66.3042 63.52C67.8509 63.52 68.6242 62.4 68.6242 60.16C68.6242 57.92 67.8509 56.8 66.3042 56.8C64.7576 56.8 63.9842 57.92 63.9842 60.16ZM62.2082 55.76C63.2109 54.6933 64.5762 54.16 66.3042 54.16C68.0322 54.16 69.3976 54.6933 70.4002 55.76C71.4029 56.8267 71.9042 58.2933 71.9042 60.16C71.9042 62.0267 71.4029 63.4933 70.4002 64.56C69.3976 65.6267 68.0322 66.16 66.3042 66.16C64.5762 66.16 63.2109 65.6267 62.2082 64.56C61.2056 63.4933 60.7042 62.0267 60.7042 60.16C60.7042 58.2933 61.2056 56.8267 62.2082 55.76Z" fill="white"/>
</svg>
