<svg width="428" height="380" viewBox="0 0 428 380" fill="none" xmlns="http://www.w3.org/2000/svg">
<path d="M381.588 26.9692C345.553 5.39384 304.182 54.0522 288 81.0782L378.516 135.273C394.554 108.162 417.623 48.5445 381.588 26.9692Z" fill="#F59F9F"/>
<path d="M370.229 42.3609C351.148 31.4027 327.027 59.0364 317.351 74.2231L368.401 104.788C376.961 88.545 389.31 53.3191 370.229 42.3609Z" fill="white"/>
<path d="M45.4724 26.9692C81.5072 5.39384 122.879 54.0522 139.06 81.0782L48.5445 135.273C32.506 108.162 9.43764 48.5445 45.4724 26.9692Z" fill="#F59F9F"/>
<path d="M56.8312 43.3609C75.9121 32.4027 100.033 60.0364 109.709 75.2231L58.6597 105.788C50.0999 89.545 37.7504 54.3191 56.8312 43.3609Z" fill="white"/>
<ellipse cx="213" cy="220" rx="200" ry="160" fill="#F59F9F"/>
<circle cx="213" cy="266" r="40" fill="white"/>
<circle cx="213" cy="266" r="28" fill="#323030"/>
<circle cx="213" cy="266" r="28" fill="#323030"/>
<path d="M145.214 290C183.025 290 206.159 275.166 213 261.5V211.107C213 211.107 196.209 202.411 145.214 203.032C104.418 203.529 90.073 233.885 88 249.001C91.3167 262.667 107.403 290 145.214 290Z" fill="white"/>
<path d="M280.786 290C242.975 290 219.841 275.166 213 261.5V211.107C213 211.107 229.791 202.411 280.786 203.032C321.582 203.529 335.927 233.885 338 249.001C334.683 262.667 318.597 290 280.786 290Z" fill="white"/>
<path d="M193.805 211.503C203.552 207 216.379 192.144 218.324 185.605C220.431 178.521 217.499 169.535 214.243 161.639C210.987 153.743 204.207 141.991 133.885 127.163C77.6275 115.3 52.7475 136.132 47.3397 148.031C40.5647 166.619 36.68 205.848 75.3408 214.058C123.667 224.321 183.908 216.075 193.805 211.503Z" fill="#489FB5"/>
<path d="M185.108 207.59C193.464 203.859 204.403 191.443 206.035 185.957C207.803 180.014 205.224 172.445 202.373 165.789C199.521 159.134 193.615 149.218 133.027 136.363C84.5572 126.078 63.2867 143.45 58.7102 153.422C53 169.009 49.907 201.962 83.2165 209.078C124.853 217.974 176.622 211.378 185.108 207.59Z" fill="#6F7A83"/>
<path d="M240.77 211.503C231.023 207 218.197 192.144 216.251 185.605C214.144 178.521 217.076 169.535 220.332 161.639C223.588 153.743 230.368 141.991 300.69 127.163C356.948 115.3 381.828 136.132 387.236 148.031C394.011 166.619 397.895 205.848 359.235 214.058C310.908 224.321 250.667 216.075 240.77 211.503Z" fill="#489FB5"/>
<path d="M249.528 207.59C241.172 203.859 230.232 191.443 228.6 185.957C226.832 180.014 229.411 172.445 232.262 165.789C235.113 159.134 241.02 149.217 301.606 136.362C350.075 126.078 371.345 143.451 375.922 153.423C381.632 169.01 384.726 201.964 351.417 209.08C309.781 217.975 258.013 211.379 249.528 207.59Z" fill="#6F7A83"/>
</svg>
