<svg width="32" height="32" viewBox="0 0 32 32" fill="none" xmlns="http://www.w3.org/2000/svg">
<rect width="32" height="32" fill="white"/>
<path d="M17.0566 16.7333C14.3284 16.7333 12.9644 17.5667 12.9644 19.2333C12.9644 19.8333 13.1433 20.3111 13.501 20.6667C13.8588 21 14.3396 21.1667 14.9434 21.1667C16.0168 21.1667 16.8889 20.8333 17.5597 20.1667C18.2306 19.4778 18.566 18.5667 18.566 17.4333V17.0333C18.566 16.8333 18.4654 16.7333 18.2642 16.7333H17.0566ZM13.2998 25C11.7568 25 10.4822 24.5111 9.47589 23.5333C8.49196 22.5333 8 21.2444 8 19.6667C8 15.6222 11.0189 13.6 17.0566 13.6H18.2642C18.4654 13.6 18.566 13.5111 18.566 13.3333V13.1667C18.566 12.3222 18.3424 11.7111 17.8952 11.3333C17.4703 10.9556 16.7435 10.7667 15.7149 10.7667C14.3508 10.7667 12.7184 10.9778 10.8176 11.4C10.348 11.4889 9.92313 11.3889 9.54298 11.1C9.18519 10.8111 9.00629 10.4333 9.00629 9.96667V9.9C9.00629 9.34444 9.174 8.84444 9.50943 8.4C9.86723 7.93333 10.3145 7.65556 10.8512 7.56667C12.819 7.18889 14.5185 7 15.9497 7C18.8791 7 20.9476 7.52222 22.1551 8.56667C23.385 9.61111 24 11.3444 24 13.7667V22.7667C24 23.2778 23.8099 23.7222 23.4298 24.1C23.0496 24.4778 22.6024 24.6667 22.0881 24.6667H20.847C20.3103 24.6667 19.8519 24.4889 19.4717 24.1333C19.0915 23.7556 18.8903 23.3 18.8679 22.7667V22.4C18.8679 22.3778 18.8567 22.3667 18.8344 22.3667C18.7897 22.3667 18.7673 22.3778 18.7673 22.4C17.3585 24.1333 15.536 25 13.2998 25Z" fill="black"/>
</svg>
