<svg width="32" height="32" viewBox="0 0 32 32" fill="none" xmlns="http://www.w3.org/2000/svg">
<circle cx="16" cy="16" r="16" fill="#787E80"/>
<path d="M8.17778 19.7079C8.17778 15.4616 13.3926 14.4 16 14.4C18.6074 14.4 23.8222 15.4616 23.8222 19.7079C23.8222 23.9543 18.6074 22.2222 16 22.2222C13.3926 22.2222 8.17778 23.9543 8.17778 19.7079Z" fill="#F8F1DB"/>
<path d="M12.6476 18.5905C12.6476 16.8025 14.8825 16.3556 16 16.3556C17.1175 16.3556 19.3524 16.8025 19.3524 18.5905C19.3524 20.3784 17.1175 20.8254 16 20.8254C14.8825 20.8254 12.6476 20.3784 12.6476 18.5905Z" fill="url(#paint0_radial_732_46)"/>
<defs>
<radialGradient id="paint0_radial_732_46" cx="0" cy="0" r="1" gradientUnits="userSpaceOnUse" gradientTransform="translate(16.6286 18.381) rotate(123.69) scale(2.76998 4.15497)">
<stop stop-color="#373A40"/>
<stop offset="0.489583" stop-color="#222429"/>
<stop offset="1" stop-color="#191B1F"/>
</radialGradient>
</defs>
</svg>
