<svg width="32" height="32" viewBox="0 0 32 32" fill="none" xmlns="http://www.w3.org/2000/svg">
<path fill-rule="evenodd" clip-rule="evenodd" d="M29.8516 24.0136C31.2178 21.6571 32 18.9199 32 16C32 7.16344 24.8366 0 16 0C7.16344 0 0 7.16344 0 16C0 24.8366 7.16344 32 16 32C20.6011 32 24.7486 30.0579 27.6674 26.9487C27.2542 27.1623 26.616 27.4163 26.1432 27.6045C25.8795 27.7094 25.6672 27.7939 25.5741 27.8395C25.2462 28 22.0497 28 21.6399 28C21.2806 28 19.9764 27.6299 19.2736 27.4305C19.1748 27.4025 19.0878 27.3778 19.0171 27.358C18.4434 27.1975 17.05 26.6357 16.8861 26.4752C16.8585 26.4482 16.8076 26.4121 16.7402 26.3641C16.4071 26.1275 15.6696 25.6035 15.3288 24.469C14.8644 24.7632 13.8043 25.3678 13.2798 25.432C12.7216 25.5003 11.5103 25.4523 11.1116 25.4365C11.0419 25.4338 10.997 25.432 10.9848 25.432C10.952 25.432 10.8144 25.6117 10.6294 25.8531C10.3521 26.2152 9.96851 26.716 9.67344 26.9567C9.28003 27.2777 8.79918 27.251 8.60794 27.1975C8.17081 26.8765 7.23098 26.074 6.9687 25.432C6.64085 24.6295 7.37851 23.2652 7.54243 23.1047L5.98515 21.259C5.71195 21.4997 4.90325 21.9491 3.85414 21.8207C2.80503 21.6923 2.2149 21.3927 2.05098 21.259C1.9417 20.51 1.93623 18.8675 2.78864 18.2897C3.08916 18.0222 3.91971 17.5033 4.83768 17.5674C5.00161 16.9254 5.49338 15.497 6.14907 14.9192C6.28568 14.7319 6.7556 14.3895 7.54243 14.5179C7.70636 14.4912 8.13257 14.3895 8.52598 14.1969C9.40024 13.1269 11.411 10.7141 12.4601 9.62265C13.7715 8.2584 16.8861 5.61013 17.8696 5.20888C18.1475 5.09553 18.4384 4.94376 18.7406 4.78612C19.508 4.38574 20.3479 3.94755 21.2301 4.00513C22.4595 4.08538 23.0332 4.32613 24.4266 6.17189C25.8199 8.01765 27.2133 10.8264 27.2133 11.6289C27.2133 12.4314 27.1313 13.5549 26.8035 14.0364C26.5412 14.4216 24.1807 16.7649 23.0332 17.8885L17.9516 22.4627C18.498 23.1582 19.9187 24.6295 21.2301 24.9505C22.8693 25.3517 24.9184 25.6727 26.2298 25.1912C27.5411 24.7097 30.1639 23.2652 29.7541 21.58L30 22.543C30 22.8797 29.9647 23.4701 29.8516 24.0136Z" fill="white"/>
</svg>
