<svg width="32" height="32" viewBox="0 0 32 32" fill="none" xmlns="http://www.w3.org/2000/svg">
<g clip-path="url(#clip0_1923_416)">
<path d="M32 16C32 24.0081 24.8367 30.5 16 30.5C7.16344 30.5 0 24.0081 0 16C0 7.99187 7.16344 1.5 16 1.5C24.8367 1.5 32 7.99187 32 16Z" fill="#F6CACA"/>
<path d="M6.66667 4.74627C6.66667 6.53914 5.17429 7.99254 3.33333 7.99254C1.49238 7.99254 0 6.53914 0 4.74627C0 2.9534 1.49238 1.5 3.33333 1.5C5.17429 1.5 6.66667 2.9534 6.66667 4.74627Z" fill="#F9FBB2"/>
<path d="M32 4.74627C32 6.53914 30.5076 7.99254 28.6667 7.99254C26.8258 7.99254 25.3333 6.53914 25.3333 4.74627C25.3333 2.9534 26.8258 1.5 28.6667 1.5C30.5076 1.5 32 2.9534 32 4.74627Z" fill="#F9FBB2"/>
<path d="M24.4444 20.7612C24.4444 23.6298 20.4647 25.9552 15.5555 25.9552C10.6463 25.9552 6.66666 23.6298 6.66666 20.7612C6.66666 17.8926 10.6463 15.5671 15.5555 15.5671C20.4647 15.5671 24.4444 17.8926 24.4444 20.7612Z" fill="#F9FBB2"/>
<mask id="mask0_1923_416" style="mask-type:luminance" maskUnits="userSpaceOnUse" x="10" y="19" width="11" height="5">
<path d="M20.6667 19.8955H10.4445V23.3582H20.6667V19.8955Z" fill="white"/>
</mask>
<g mask="url(#mask0_1923_416)">
<path d="M14.4445 21.6269C14.4445 22.5831 13.549 23.3582 12.4445 23.3582C11.3399 23.3582 10.4445 22.5831 10.4445 21.6269C10.4445 20.6707 11.3399 19.8955 12.4445 19.8955C13.549 19.8955 14.4445 20.6707 14.4445 21.6269Z" fill="#69A297"/>
<path d="M20.6667 21.6269C20.6667 22.5831 19.7713 23.3582 18.6667 23.3582C17.5621 23.3582 16.6667 22.5831 16.6667 21.6269C16.6667 20.6707 17.5621 19.8955 18.6667 19.8955C19.7713 19.8955 20.6667 20.6707 20.6667 21.6269Z" fill="#69A297"/>
</g>
</g>
<defs>
<clipPath id="clip0_1923_416">
<rect width="32" height="29" fill="white" transform="translate(0 1.5)"/>
</clipPath>
</defs>
</svg>
