<svg id="Layer_1" data-name="Layer 1" xmlns="http://www.w3.org/2000/svg" viewBox="0 0 24 24" stroke-width="1.5" width="24" height="24" color="#25191F"><defs><style>.cls-637b7f18f95e86b59c57a00f-1{fill:none;stroke:currentColor;stroke-miterlimit:10;}</style></defs><path class="cls-637b7f18f95e86b59c57a00f-1" d="M5.32,14.86,3.41,17.73,1.5,14.86V3.41A1.9,1.9,0,0,1,3.41,1.5h0A1.91,1.91,0,0,1,5.32,3.41Z"></path><path class="cls-637b7f18f95e86b59c57a00f-1" d="M20.59,22.5H8.18a1.92,1.92,0,0,1-1.91-1.91V18.68H18.68v1.91A1.92,1.92,0,0,0,20.59,22.5Z"></path><path class="cls-637b7f18f95e86b59c57a00f-1" d="M22.5,1.5V20.59a1.91,1.91,0,0,1-3.82,0V18.68H10.09V1.5Z"></path><line class="cls-637b7f18f95e86b59c57a00f-1" x1="12.95" y1="6.27" x2="19.64" y2="6.27"></line><line class="cls-637b7f18f95e86b59c57a00f-1" x1="12.95" y1="10.09" x2="19.64" y2="10.09"></line><line class="cls-637b7f18f95e86b59c57a00f-1" x1="12.95" y1="13.91" x2="19.64" y2="13.91"></line></svg>