<?xml version="1.0" encoding="UTF-8"?>
<svg width="98px" height="83px" viewBox="0 0 98 83" version="1.1" xmlns="http://www.w3.org/2000/svg" xmlns:xlink="http://www.w3.org/1999/xlink">
    <!-- Generator: Sketch 47.1 (45422) - http://www.bohemiancoding.com/sketch -->
    <title>cloud</title>
    <desc>Created with Sketch.</desc>
    <defs>
        <rect id="path-1" x="0" y="0" width="100" height="100"></rect>
        <linearGradient x1="7.10772719%" y1="19.1035195%" x2="100%" y2="100%" id="linearGradient-3">
            <stop stop-color="#FC9A9B" offset="0%"></stop>
            <stop stop-color="#F37D7E" offset="25.1390078%"></stop>
            <stop stop-color="#F07576" offset="50.1867449%"></stop>
            <stop stop-color="#F77576" offset="78.1429767%"></stop>
            <stop stop-color="#FF6D6E" offset="100%"></stop>
        </linearGradient>
    </defs>
    <g id="Page-1" stroke="none" stroke-width="1" fill="none" fill-rule="evenodd">
        <g id="cloud" transform="translate(-1.000000, -8.000000)">
            <mask id="mask-2" fill="white">
                <use xlink:href="#path-1"></use>
            </mask>
            <g id="Mask"></g>
            <g id="05" opacity="0.800000012" mask="url(#mask-2)">
                <g transform="translate(1.000000, 18.000000)">
                    <rect id="Rectangle" stroke="none" opacity="0.7" x="0" y="0" width="80" height="80"></rect>
                    <path d="M63.7769797,54.96 L64.5802498,54.871203 C71.8991311,54.0621417 77.4962963,47.8516783 77.4962963,40.4266667 C77.4962963,32.4001283 70.9895013,25.8933333 62.962963,25.8933333 C62.5099833,25.8933333 62.0598079,25.9139956 61.6132955,25.9550414 L60.060288,26.097802 L59.543303,24.6264287 C56.3329776,15.4896317 48.1149328,9.36 39.0814815,9.36 C26.1963549,9.36 16.2407879,18.6678858 15.4179143,31.3708993 L15.2961856,33.2500726 L13.4130928,33.2415943 C13.3880383,33.2415003 13.3880383,33.2415003 13.362963,33.2414815 C7.36555968,33.2414815 2.5037037,38.1033375 2.5037037,44.1007407 C2.5037037,50.0981455 7.36556119,54.96 13.3629745,54.96 L63.7769797,54.96 Z" id="cloud" stroke="#AAD4FF" stroke-width="4"></path>
                    <path d="M53.3162477,70.16 L53.8839535,70.0972433 C59.0532751,69.5258038 63.0074074,65.1384054 63.0074074,59.8933333 C63.0074074,54.2232099 58.4108642,49.6266667 52.7407407,49.6266667 C52.4204382,49.6266667 52.1022022,49.6412732 51.7866207,49.6702831 L50.2336132,49.8130437 L49.7166282,48.3416704 C47.405791,41.7648759 41.5001397,37.36 35.0222222,37.36 C25.7341015,37.36 18.5733432,44.0548995 17.9804316,53.207902 L17.8587029,55.0870752 L15.9756101,55.078597 C15.9581831,55.0785316 15.9581831,55.0785316 15.9407407,55.0785185 C11.7761046,55.0785185 8.4,58.4546231 8.4,62.6192593 C8.4,66.7838954 11.7761046,70.16 15.9407407,70.16 L53.3162477,70.16 Z" id="cloud-copy" stroke="#AAD4FF" stroke-width="4"></path>
                </g>
            </g>
            <path d="M48.9646407,48.0725708 C39.1850419,47.4705804 31.4396844,39.3484486 31.4396844,29.4172917 L31.4396844,29.4172917 C31.4396844,14.5596729 39.213271,3.99641201 53.5513468,3.99641201 C67.8894225,3.99641201 73.5314345,2.00447705 73.5314345,16.8620959 C73.5314345,18.5529309 73.3373626,20.3527805 72.9492188,22.2616447 C77.0318519,22.83471 80.9032308,24.9707014 84.2865503,29.1487531 C93.2178686,40.1780127 95.3659919,61.2610028 84.7245379,69.8782823 C74.0830839,78.4955618 69.3441866,79.6569597 60.4128683,68.6277002 C55.8841177,63.0351589 51.1470244,55.3820802 48.9646407,48.0725708 Z" id="Combined-Shape" fill-opacity="0.7" fill="url(#linearGradient-3)" mask="url(#mask-2)" transform="translate(61.658420, 40.263920) rotate(319.000000) translate(-61.658420, -40.263920) "></path>
        </g>
    </g>
</svg>