<?xml version="1.0" encoding="UTF-8"?>
<svg width="93px" height="88px" viewBox="0 0 93 88" version="1.1" xmlns="http://www.w3.org/2000/svg" xmlns:xlink="http://www.w3.org/1999/xlink">
    <!-- Generator: Sketch 47.1 (45422) - http://www.bohemiancoding.com/sketch -->
    <title>storesscore</title>
    <desc>Created with Sketch.</desc>
    <defs>
        <rect id="path-1" x="0" y="0" width="100" height="100"></rect>
        <linearGradient x1="7.10772719%" y1="19.1035195%" x2="100%" y2="100%" id="linearGradient-3">
            <stop stop-color="#FC9A9B" offset="0%"></stop>
            <stop stop-color="#F37D7E" offset="25.1390078%"></stop>
            <stop stop-color="#F07576" offset="50.1867449%"></stop>
            <stop stop-color="#F77576" offset="78.1429767%"></stop>
            <stop stop-color="#FF6D6E" offset="100%"></stop>
        </linearGradient>
    </defs>
    <g id="Page-1" stroke="none" stroke-width="1" fill="none" fill-rule="evenodd">
        <g id="storesscore" transform="translate(-5.000000, -6.000000)">
            <g id="Combined-Shape-+-line-chart-Mask">
                <mask id="mask-2" fill="white">
                    <use xlink:href="#path-1"></use>
                </mask>
                <g id="Mask"></g>
                <g id="line-chart" opacity="0.7" mask="url(#mask-2)">
                    <g transform="translate(5.000000, 20.000000)">
                        <circle id="Oval" fill="#E46A53" cx="17.5" cy="51.5" r="3.5"></circle>
                        <circle id="Oval" fill="#F4A026" cx="32.5" cy="32.5" r="3.5"></circle>
                        <circle id="Oval" fill="#30A987" cx="46.5" cy="45.5" r="3.5"></circle>
                        <circle id="Oval" fill="#61ACD2" cx="60.5" cy="15.5" r="3.5"></circle>
                        <path d="M16.4374817,35 C17.3004043,35 18,34.1047155 18,33 C18,31.8952845 17.3005508,31 16.4374817,31 L14.5625183,31 C13.6995957,31 13,31.8952845 13,33 C13,34.1047155 13.6994492,35 14.5625183,35 L16.4374817,35 Z" id="Shape" fill="#231F20"></path>
                        <path d="M22.5625183,35 L24.4374817,35 C25.3004043,35 26,34.1047155 26,33 C26,31.8952845 25.3005508,31 24.4374817,31 L22.5625183,31 C21.6995957,31 21,31.8952845 21,33 C21,34.1047155 21.6995957,35 22.5625183,35 Z" id="Shape" fill="#231F20"></path>
                        <path d="M49.5625183,18 L51.4374817,18 C52.3002578,18 53,17.1047155 53,16 C53,14.8952845 52.3002578,14 51.4374817,14 L49.5625183,14 C48.6997422,14 48,14.8952845 48,16 C48,17.1047155 48.6997422,18 49.5625183,18 Z" id="Shape" fill="#231F20"></path>
                        <path d="M39.5625183,18 L41.4374817,18 C42.3002578,18 43,17.1047155 43,16 C43,14.8952845 42.3002578,14 41.4374817,14 L39.5625183,14 C38.6997422,14 38,14.8952845 38,16 C38,17.1047155 38.6997422,18 39.5625183,18 Z" id="Shape" fill="#231F20"></path>
                        <path d="M31.5625183,18 L33.4374817,18 C34.3004043,18 35,17.1047155 35,16 C35,14.8952845 34.3005508,14 33.4374817,14 L31.5625183,14 C30.6995957,14 30,14.8952845 30,16 C30,17.1047155 30.6994492,18 31.5625183,18 Z" id="Shape" fill="#231F20"></path>
                        <path d="M22.5625183,18 L24.4374817,18 C25.3004043,18 26,17.1047155 26,16 C26,14.8952845 25.3005508,14 24.4374817,14 L22.5625183,14 C21.6995957,14 21,14.8952845 21,16 C21,17.1047155 21.6995957,18 22.5625183,18 Z" id="Shape" fill="#231F20"></path>
                        <path d="M13,16 C13,17.104528 13.6994492,18 14.5625183,18 L16.4374817,18 C17.3004043,18 18,17.1047155 18,16 C18,14.8952845 17.3005508,14 16.4374817,14 L14.5625183,14 C13.6994492,14 13,14.8952845 13,16 Z" id="Shape" fill="#231F20"></path>
                        <path d="M33,54 C31.895472,54 31,54.8393391 31,55.875022 L31,58.124978 C31,59.1604851 31.8952845,60 33,60 C34.104528,60 35,59.1606609 35,58.124978 L35,55.875022 C35,54.8395149 34.104528,54 33,54 Z" id="Shape" fill="#231F20"></path>
                        <path d="M35,46.875022 C35,45.8395149 34.1047155,45 33,45 C31.895472,45 31,45.8393391 31,46.875022 L31,49.124978 C31,50.1604851 31.8952845,51 33,51 C34.104528,51 35,50.1606609 35,49.124978 L35,46.875022 Z" id="Shape" fill="#231F20"></path>
                        <path d="M45,55.875022 L45,58.124978 C45,59.1604851 45.8956595,60 47,60 C48.1043405,60 49,59.1606609 49,58.124978 L49,55.875022 C49,54.8395149 48.1043405,54 47,54 C45.8956595,54 45,54.8393391 45,55.875022 Z" id="Shape" fill="#231F20"></path>
                        <path d="M64,46.875022 C64,45.8395149 63.1043405,45 62,45 C60.8956595,45 60,45.8393391 60,46.875022 L60,49.124978 C60,50.1604851 60.8956595,51 62,51 C63.1043405,51 64,50.1604851 64,49.124978 L64,46.875022 Z" id="Shape" fill="#231F20"></path>
                        <path d="M64,28.875022 C64,27.8395149 63.1043405,27 62,27 C60.8956595,27 60,27.8393391 60,28.875022 L60,31.124978 C60,32.1604851 60.8956595,33 62,33 C63.1043405,33 64,32.1604851 64,31.124978 L64,28.875022 Z" id="Shape" fill="#231F20"></path>
                        <path d="M64,38.875022 C64,37.8395149 63.1043405,37 62,37 C60.8956595,37 60,37.8393391 60,38.875022 L60,41.124978 C60,42.1604851 60.8956595,43 62,43 C63.1043405,43 64,42.1604851 64,41.124978 L64,38.875022 Z" id="Shape" fill="#231F20"></path>
                        <path d="M62,54 C60.8956595,54 60,54.8393391 60,55.875022 L60,58.124978 C60,59.1604851 60.8956595,60 62,60 C63.1043405,60 64,59.1604851 64,58.124978 L64,55.875022 C64,54.8395149 63.1043405,54 62,54 Z" id="Shape" fill="#231F20"></path>
                        <path d="M79.4249386,65.2249487 L73.1749434,59.7465468 C72.4793189,59.1370277 71.426976,59.2127238 70.8240077,59.9164283 C70.2211957,60.6198167 70.2963519,61.6844601 70.9918201,62.2941372 L73.8652554,64.8131243 L62.4999517,64.8131243 L62.4999517,64.4760478 C62.4999517,63.5450972 61.753546,62.7903492 60.8332342,62.7903492 C59.9129224,62.7903492 59.1665167,63.5449392 59.1665167,64.4760478 L59.1665167,64.8131243 L48.3332439,64.8131243 L48.3332439,63.9140956 C48.3332439,62.983145 47.5868382,62.228397 46.6665264,62.228397 C45.7462146,62.228397 44.9999652,62.983145 44.9999652,63.9140956 L44.9999652,64.8131243 L34.1666923,64.8131243 L34.1666923,64.4760478 C34.1666923,63.5450972 33.4205991,62.7903492 32.4999749,62.7903492 C31.5795068,62.7903492 30.8332574,63.5449392 30.8332574,64.4760478 L30.8332574,64.8131243 L19.9999845,64.8131243 L19.9999845,63.0150669 C19.9999845,62.0841163 19.2538914,61.3293683 18.3332671,61.3293683 C17.412799,61.3293683 16.6665496,62.0839582 16.6665496,63.0150669 L16.6665496,64.8131243 L9.58327384,64.8131243 L9.58327384,6.20432166 L12.0737407,9.11063862 C12.4034279,9.49528195 12.8673338,9.69234449 13.3338959,9.69234449 C13.7207706,9.69234449 14.1093641,9.55675535 14.4246763,9.28052012 C15.1201446,8.67084306 15.195457,7.60619963 14.5924887,6.90281119 L9.17577415,0.581638961 C9.16905541,0.573895525 9.16327416,0.568522528 9.15686792,0.561569239 C8.9807743,0.362452314 8.75733698,0.20394892 8.49889968,0.106286809 C7.84702518,-0.139448761 7.11296325,0.0498703469 6.65686985,0.581638961 L1.24015529,6.90281119 C0.637343257,7.60619963 0.712499449,8.67084306 1.40812391,9.28052012 C2.10374837,9.89019718 3.15624756,9.81418509 3.75905959,9.11063862 L6.24999517,6.20432166 L6.24999517,64.8131243 L1.66671746,64.8131243 C0.746093173,64.8131243 0,65.5677143 0,66.4988229 C0,67.4299316 0.746093173,68.1845216 1.66671746,68.1845216 L6.24999517,68.1845216 L6.24999517,72.3143014 C6.24999517,73.245252 6.99608834,74 7.91671263,74 C8.83733691,74 9.58343009,73.2454101 9.58343009,72.3143014 L9.58343009,68.1845216 L73.8655679,68.1845216 L70.9919763,70.7033507 C70.2963519,71.3130277 70.2211957,72.3776711 70.8240077,73.0810596 C71.153695,73.4657029 71.6174446,73.6627655 72.084163,73.6627655 C72.4710377,73.6627655 72.8596311,73.5271763 73.1749434,73.2509411 L79.4249386,67.7725392 C79.4343136,67.7643216 79.4416573,67.7568942 79.4500948,67.7489928 C79.6444696,67.5715259 79.7994695,67.3472823 79.8949382,67.0881142 C80.1379068,66.4284999 79.9505632,65.6857622 79.4249386,65.2249487 Z" id="Shape" fill="#231F20"></path>
                        <path d="M13,52.4879525 C13,55.5272345 15.4469812,58 18.4545717,58 C21.4621621,58 23.908986,55.5272345 23.908986,52.4879525 C23.908986,51.3061067 23.5379738,50.2110748 22.9089209,49.3127257 L30.949564,38.4787945 C31.5051383,38.6721383 32.1003627,38.7785092 32.7201325,38.7785092 C33.7219283,38.7785092 34.6607875,38.5029625 35.4684234,38.02485 L41.9995284,43.9259701 C41.6994774,44.6083974 41.5312789,45.3626926 41.5312789,46.1562609 C41.5312789,49.1955428 43.9781028,51.6683083 46.9858506,51.6683083 C49.9935983,51.6683083 52.4404222,49.1955428 52.4404222,46.1562609 C52.4404222,44.6055354 51.8025582,43.2033158 50.7790491,42.2008218 L60.4694221,22.2700328 C60.7251027,22.3073977 60.9858182,22.3275907 61.2515687,22.3275907 C64.2593165,22.3275907 66.7061404,19.8548252 66.7061404,16.8155432 C66.7061404,15.9181481 66.491526,15.071156 66.1135908,14.3216307 L72.5051335,7.89867313 C73.1623506,7.23802879 73.1653401,6.16430287 72.5117418,5.50016053 C71.8579862,4.8358592 70.795299,4.8329972 70.1380819,5.49332354 L63.7465392,11.9164401 C62.9983785,11.5256185 62.150463,11.3034957 61.251726,11.3034957 C58.2439783,11.3034957 55.7971544,13.7762613 55.7971544,16.8155432 C55.7971544,18.3662687 56.4350184,19.7684883 57.4585275,20.7709823 L47.7681545,40.7020893 C47.5124739,40.6647243 47.2517584,40.6445314 46.9860079,40.6445314 C45.984212,40.6445314 45.0453529,40.9200781 44.2377169,41.3981906 L37.7067693,35.4970705 C38.0068203,34.8146432 38.1750188,34.060348 38.1750188,33.2667797 C38.1750188,30.2274978 35.7280376,27.7547323 32.7204471,27.7547323 C29.7128567,27.7547323 27.2658755,30.2274978 27.2658755,33.2667797 C27.2658755,34.4486256 27.6368877,35.5436575 28.2659406,36.4418476 L20.2252974,47.2757787 C19.6695658,47.0824349 19.0744988,46.976064 18.454729,46.976064 C15.4469812,46.975905 13,49.4486706 13,52.4879525 Z M61.2514114,14.6952803 C62.4083463,14.6952803 63.3492509,15.6462584 63.3492509,16.8152252 C63.3492509,17.984351 62.408189,18.9351701 61.2514114,18.9351701 C60.0946337,18.9351701 59.1535718,17.984351 59.1535718,16.8153842 C59.1535718,15.6462584 60.0946337,14.6952803 61.2514114,14.6952803 Z M18.4544143,54.6078974 C17.2974793,54.6078974 16.3565748,53.6569193 16.3565748,52.4879525 C16.3565748,51.3189857 17.2976367,50.3680076 18.4544143,50.3680076 C19.611192,50.3680076 20.5522539,51.3189857 20.5522539,52.4879525 C20.5522539,53.6569193 19.6113493,54.6078974 18.4544143,54.6078974 Z M46.9858506,48.2760467 C45.8289156,48.2760467 44.888011,47.3250687 44.888011,46.1561019 C44.888011,44.987135 45.8290729,44.036157 46.9858506,44.036157 C48.1426282,44.036157 49.0836901,44.986976 49.0836901,46.1561019 C49.0836901,47.3252277 48.1426282,48.2760467 46.9858506,48.2760467 Z M32.7201325,31.1465169 C33.8770675,31.1465169 34.817972,32.0974949 34.817972,33.2664617 C34.817972,34.4354286 33.8769101,35.3864066 32.7201325,35.3864066 C31.5633548,35.3864066 30.6222929,34.4354286 30.6222929,33.2664617 C30.6222929,32.0974949 31.5631975,31.1465169 32.7201325,31.1465169 Z" id="Shape" fill="#231F20"></path>
                    </g>
                </g>
                <path d="M42.6874693,50.1090175 C31.835939,49.4410435 23.241621,40.4286534 23.241621,29.4089528 L23.241621,29.4089528 C23.241621,12.922806 31.8672622,1.20171718 47.7769194,1.20171718 C63.6865766,1.20171718 69.9470035,-1.00855167 69.9470035,15.4775952 C69.9470035,17.3537608 69.7316596,19.35089 69.3009718,21.4689829 C73.8310981,22.1048612 78.1268147,24.4749764 81.8809764,29.11098 C91.7912471,41.3491451 94.1748238,64.7430196 82.3669713,74.3048301 C70.5591187,83.8666406 65.3007958,85.1553381 55.3905251,72.917173 C50.3653829,66.7116391 45.1090618,58.2197145 42.6874693,50.1090175 Z" id="Combined-Shape" fill-opacity="0.7" fill="url(#linearGradient-3)" mask="url(#mask-2)" transform="translate(56.772600, 41.444468) rotate(319.000000) translate(-56.772600, -41.444468) "></path>
            </g>
        </g>
    </g>
</svg>